<svg width="214" height="47" viewBox="0 0 214 47" fill="none" xmlns="http://www.w3.org/2000/svg">
<path fill-rule="evenodd" clip-rule="evenodd" d="M91.5306 22.7249C94.1995 21.7074 95.9293 19.1878 95.8798 16.4259C95.8798 10.7568 91.7778 7.94653 86.1436 7.94653H71.3662V38.763H87.4286C92.3708 38.763 97.2142 35.3713 97.2142 30.1867C97.2142 24.0331 91.5306 22.7733 91.5306 22.7249ZM79.0761 14.3424H84.8092C86.3413 14.2455 87.6757 15.4084 87.7745 16.9105C87.7745 17.0074 87.7745 17.1527 87.7745 17.2496C87.7251 18.8486 86.4401 20.0599 84.8092 20.0599H79.0267L79.0761 14.3424ZM84.8586 32.3187H79.1256V26.262H84.7103C87.5274 26.262 88.8618 27.4733 88.8618 29.2661C88.8618 31.495 87.1815 32.3187 84.8586 32.3187Z" fill="#ED0007"/>
<path fill-rule="evenodd" clip-rule="evenodd" d="M114.216 7.17114C105.122 7.17114 99.7842 14.2938 99.7842 23.3062C99.7842 32.3186 105.122 39.4412 114.216 39.4412C123.309 39.4412 128.647 32.367 128.647 23.3062C128.647 14.2454 123.359 7.17114 114.216 7.17114ZM114.216 32.0763C109.768 32.0763 107.544 28.1516 107.544 23.3062C107.544 18.4608 109.768 14.5845 114.216 14.5845C118.664 14.5845 120.937 18.5093 120.937 23.3062C120.937 28.2 118.664 32.0763 114.216 32.0763Z" fill="#ED0007"/>
<path fill-rule="evenodd" clip-rule="evenodd" d="M145.401 20.0599L144.314 19.8176C141.645 19.2847 139.52 18.6063 139.52 16.7166C139.52 14.6816 141.546 13.8579 143.325 13.8579C145.797 13.9063 148.119 14.9238 149.75 16.7166L154.643 11.9682C152.419 9.49703 148.811 7.1228 143.177 7.1228C136.555 7.1228 131.513 10.7568 131.513 16.8135C131.513 22.3372 135.566 25.0506 140.508 26.0682L141.596 26.3104C145.698 27.1341 147.23 27.764 147.23 29.7022C147.23 31.5434 145.549 32.7548 142.979 32.7548C139.915 32.7548 137.148 31.4465 135.022 28.7816L130.031 33.6269C132.798 36.8733 136.307 39.3929 143.078 39.3929C148.96 39.3929 155.236 36.0981 155.236 29.363C155.335 22.3372 149.899 20.9805 145.401 20.0599Z" fill="#ED0007"/>
<path fill-rule="evenodd" clip-rule="evenodd" d="M172.831 32.0764C169.371 32.0764 165.763 29.2661 165.763 23.1125C165.763 17.6373 169.124 14.5847 172.633 14.5847C175.401 14.5847 177.032 15.8445 178.317 18.0249L184.643 13.9063C181.48 9.20633 177.724 7.21973 172.534 7.21973C163.045 7.21973 157.905 14.4393 157.905 23.161C157.905 32.3187 163.589 39.4898 172.436 39.4898C178.663 39.4898 181.628 37.3579 184.841 32.8032L178.465 28.5878C177.18 30.6228 175.796 32.0764 172.831 32.0764Z" fill="#ED0007"/>
<path fill-rule="evenodd" clip-rule="evenodd" d="M205.746 7.94653V19.2847H196.208V7.94653H187.954V38.763H196.208V26.6012H205.746V38.763H214V7.94653H205.746Z" fill="#ED0007"/>
<path d="M23.8217 0.0969238C10.6753 0.0969238 0 10.5629 0 23.4516C0 36.3402 10.6753 46.8062 23.8217 46.8062C36.9681 46.8062 47.6434 36.3402 47.6434 23.4516C47.6434 10.5629 36.9681 0.0969238 23.8217 0.0969238ZM23.8217 44.6258C11.9109 44.6258 2.22402 35.1289 2.22402 23.4516C2.22402 11.7742 11.9109 2.27734 23.8217 2.27734C35.7326 2.27734 45.4194 11.7742 45.4194 23.4516C45.4194 35.1289 35.7326 44.6258 23.8217 44.6258Z" fill="black"/>
<path d="M33.6568 8.86694H32.0259V16.8618H15.667V8.86694H13.9866C5.78248 14.1968 3.50904 25.002 8.94553 33.0938C10.2799 35.0803 12.0097 36.7762 13.9866 38.036H15.667V30.0412H32.0259V38.036H33.6568C41.861 32.7061 44.1344 21.901 38.7474 13.8577C37.413 11.8711 35.6832 10.1752 33.6568 8.86694ZM13.3936 34.8865C6.96863 29.2659 6.37555 19.5752 12.1086 13.2762C12.504 12.8401 12.9488 12.4041 13.3936 12.0164V34.8865ZM32.0259 27.8123H15.667V19.0422H32.0259V27.8123ZM34.2499 34.8381V29.9927V16.8618V12.0164C40.6749 17.6855 41.2185 27.3762 35.4361 33.6752C35.0407 34.0628 34.6453 34.4504 34.2499 34.8381Z" fill="black"/>
</svg>
