<svg width="30" height="30" viewBox="0 0 30 30" fill="none" xmlns="http://www.w3.org/2000/svg">
<circle cx="15" cy="15" r="14" stroke="#2E36FF" stroke-width="2"/>
<g clip-path="url(#clip0_273_194)">
<path d="M20.6569 19.2426L16.4142 15L20.6569 10.7573C21.0474 10.3668 21.0474 9.73366 20.6569 9.34313C20.2663 8.95261 19.6332 8.95261 19.2426 9.34313L15 13.5858L10.7574 9.34313C10.3668 8.95261 9.73367 8.95261 9.34315 9.34313C8.95262 9.73366 8.95262 10.3668 9.34315 10.7573L13.5858 15L9.34315 19.2426C8.95262 19.6332 8.95262 20.2663 9.34315 20.6568C9.73367 21.0474 10.3668 21.0474 10.7574 20.6568L15 16.4142L19.2426 20.6568C19.6332 21.0474 20.2663 21.0474 20.6569 20.6568C21.0474 20.2663 21.0474 19.6332 20.6569 19.2426Z" fill="#2E36FF"/>
</g>
<defs>
<clipPath id="clip0_273_194">
<rect width="16" height="16" fill="white" transform="translate(7 7)"/>
</clipPath>
</defs>
</svg>
