<svg width="30" height="30" viewBox="0 0 30 30" fill="none" xmlns="http://www.w3.org/2000/svg">
  <circle cx="15" cy="15" r="14" stroke="white" stroke-width="2" />
  <g clip-path="url(#clip0_49_1414)">
    <path
      d="M20.6569 19.2426L16.4142 15L20.6569 10.7574C21.0474 10.3668 21.0474 9.73367 20.6569 9.34315C20.2663 8.95263 19.6332 8.95263 19.2426 9.34315L15 13.5858L10.7574 9.34315C10.3668 8.95263 9.73367 8.95263 9.34315 9.34315C8.95262 9.73367 8.95262 10.3668 9.34315 10.7574L13.5858 15L9.34315 19.2426C8.95262 19.6332 8.95262 20.2663 9.34315 20.6569C9.73367 21.0474 10.3668 21.0474 10.7574 20.6569L15 16.4142L19.2426 20.6569C19.6332 21.0474 20.2663 21.0474 20.6569 20.6569C21.0474 20.2663 21.0474 19.6332 20.6569 19.2426Z"
      fill="white" />
  </g>
  <defs>
    <clipPath id="clip0_49_1414">
      <rect width="16" height="16" fill="white" transform="translate(7 7)" />
    </clipPath>
  </defs>
</svg>