<svg width="225" height="24" viewBox="0 0 225 24" fill="none" xmlns="http://www.w3.org/2000/svg">
<path d="M0.206724 0.163535C-0.0255009 0.371204 -0.0771063 22.5917 0.129315 23.1628C0.232526 23.4484 2.24514 23.5003 11.0439 23.4224C16.9527 23.3965 22.7325 23.2407 23.8678 23.1109C25.0031 22.9552 26.8351 22.7215 27.9446 22.5917C29.08 22.436 30.1895 22.2024 30.4475 22.0726C30.7055 21.9168 31.1958 21.813 31.5312 21.813C32.7956 21.813 37.3884 19.9959 39.0656 18.8278C41.8781 16.9068 43.0908 14.7782 43.0908 11.7411C43.0908 8.75582 41.1814 6.00422 37.8271 4.16116C36.5112 3.46027 35.7113 3.14877 32.3053 2.05851C31.0668 1.66913 27.119 1.04613 22.5777 0.526955C19.5588 0.189494 0.490553 -0.122009 0.206724 0.163535ZM19.3781 5.84846C25.6224 6.41955 26.9383 6.65318 29.4928 7.61365C32.6149 8.78178 34.0599 11.3776 32.7698 13.5582C31.6086 15.531 28.8735 16.7511 23.7388 17.5298C20.3586 18.049 9.88274 18.2047 9.59891 17.7375C9.4957 17.5817 9.41829 14.908 9.41829 11.8189C9.41829 6.5753 9.4699 6.15997 9.93435 5.82251C10.5794 5.32929 13.908 5.35525 19.3781 5.84846ZM64.7651 0.267369C64.1201 0.397162 62.8041 0.604831 61.7978 0.760582C60.8173 0.916334 59.811 1.124 59.6046 1.20188C59.3982 1.30571 58.8047 1.46146 58.3144 1.5653C55.9922 2.11043 52.7669 3.61603 50.8833 5.04375C45.7227 8.93753 46.1098 15.6348 51.6573 19.269C54.6505 21.2159 59.94 22.9292 64.5071 23.3965C72.1705 24.2012 74.725 24.2012 82.956 23.3965C87.4973 22.9552 87.6779 22.8254 87.1877 20.9044C87.0329 20.3333 86.8264 19.4508 86.749 18.9575C86.5684 18.1269 86.4652 18.049 85.5879 17.9711C85.0719 17.9192 83.3947 18.075 81.9239 18.2826C77.9245 18.8797 69.358 18.8278 65.7972 18.1788C62.1848 17.5298 61.2818 17.2443 59.682 16.2059C57.1275 14.5705 57.1533 14.5705 68.0679 14.4927L77.7955 14.4148L77.9245 12.1304C78.0019 10.8844 78.0277 9.74225 77.9761 9.61246C77.9245 9.45671 74.2605 9.35287 68.1195 9.35287C62.7525 9.35287 58.2886 9.275 58.237 9.1452C58.0048 8.78178 59.0369 7.79536 60.3529 7.14639C63.6814 5.45908 70.5707 4.73224 78.6986 5.1995C81.3305 5.35525 83.9623 5.58888 84.5558 5.71867C86.4652 6.15997 86.6974 6.10805 86.6974 5.04375C86.6974 4.55054 86.8006 3.92753 86.9555 3.66794C87.0845 3.40836 87.2393 2.68152 87.2651 2.05851L87.3425 0.916334L85.9233 0.734624C85.1493 0.630789 83.7043 0.423121 82.698 0.293328C80.6338 -0.0181748 66.4939 -0.0181749 64.7651 0.267369ZM93.7674 0.345245C93.7158 0.500996 93.69 5.77059 93.7158 12.0266L93.7932 23.3705L108.372 23.3965C116.396 23.3965 123.105 23.3705 123.286 23.3705C123.518 23.3705 123.595 22.6956 123.595 20.9304C123.595 18.9056 123.518 18.4643 123.157 18.3345C122.924 18.2307 118.512 18.1788 113.352 18.1788C106.411 18.2047 103.856 18.1269 103.572 17.8932C103.263 17.6596 103.211 16.154 103.211 8.93753C103.211 0.942293 103.185 0.293328 102.773 0.163535C102.514 0.111618 100.424 0.0337423 98.1022 0.0337423C95.0317 0.0337423 93.8706 0.111618 93.7674 0.345245ZM128.833 0.293328C128.369 0.760583 128.343 22.9811 128.782 23.2667C129.143 23.4743 137.709 23.4484 138.045 23.2407C138.2 23.1369 138.303 21.8649 138.303 20.4112C138.303 18.5682 138.406 17.6337 138.638 17.4519C138.819 17.2962 141.864 17.1404 146.431 17.0626C151.024 16.9847 154.352 16.8289 155.075 16.6213C158.042 15.8425 159.177 15.4531 160.648 14.7523C165.163 12.6237 166.273 7.71748 162.996 4.42074C162.196 3.64198 161.525 3.22665 159.151 2.05851C158.326 1.64317 155.9 1.09804 152.365 0.526955C149.579 0.0597008 129.22 -0.147968 128.833 0.293328ZM151.411 5.92634C152.314 6.18593 153.449 6.7051 153.939 7.09448C154.662 7.69152 154.817 8.00303 154.817 8.80774C154.817 9.94992 154.249 10.547 152.494 11.3257C151.462 11.767 150.714 11.8189 144.883 11.8189H138.432L138.354 8.62603L138.277 5.45908H144.031C148.727 5.48504 150.095 5.56292 151.411 5.92634ZM169.705 0.163535C169.498 0.371204 169.447 22.6177 169.653 23.1628C169.756 23.4224 170.737 23.4743 174.349 23.4484C176.852 23.3965 178.942 23.3186 179.02 23.2667C179.071 23.1888 179.123 21.3198 179.097 19.1133C179.097 15.4012 179.123 15.0638 179.587 14.8042C180.103 14.5186 197.546 14.4148 198.268 14.7003C198.63 14.8301 198.681 15.4531 198.681 18.9575C198.681 21.9687 198.759 23.1369 198.991 23.2667C199.171 23.3965 201.261 23.4743 203.661 23.5003C207.79 23.5003 207.996 23.4743 208.125 22.9811C208.177 22.6956 208.202 17.4519 208.177 11.2998L208.099 0.137577L203.997 0.059701C201.752 0.00778386 199.636 0.0337421 199.3 0.111618C198.681 0.267369 198.681 0.26737 198.681 4.55053C198.681 8.49624 198.655 8.8337 198.191 9.09329C197.546 9.43075 180.129 9.45671 179.587 9.09329C179.278 8.91158 179.2 8.0809 179.149 4.65437C179.123 1.59126 179.02 0.397162 178.787 0.241411C178.374 0.00778357 169.937 -0.070092 169.705 0.163535ZM215.324 0.319287C215.247 0.500997 215.221 5.77059 215.247 12.0526L215.324 23.4224H219.917C222.42 23.3965 224.613 23.3186 224.768 23.2407C224.923 23.1109 225 19.269 225 11.793C224.948 1.124 224.923 0.500997 224.484 0.267369C223.736 -0.122009 215.479 -0.0700919 215.324 0.319287Z" fill="#2544B0"/>
</svg>
