<svg width="220" height="35" viewBox="0 0 220 35" fill="none" xmlns="http://www.w3.org/2000/svg">
<path fill-rule="evenodd" clip-rule="evenodd" d="M19.1795 5.08227L27.8968 5.02357C35.7779 5.14098 36.6841 8.99562 33.1279 17.7564C30.1287 25.2329 25.4571 29.7878 16.5984 29.7291H9.69365L19.1795 5.08227ZM179.234 14.8358C184.395 4.38095 191.159 0.409947 205.036 0.117468C217.451 -0.116306 222.961 4.67344 218.426 16.6472C213.547 29.6715 204.688 34.9277 191.298 34.9277C176.584 34.9864 172.887 27.4522 179.234 14.8358ZM188.788 15.5371C191.995 8.87821 196.668 4.26459 203.574 4.20588C209.779 4.14718 210.897 7.94417 208.107 15.9459C204.549 26.2246 199.388 30.7219 192.345 30.6055C184.535 30.5468 184.674 24.1217 188.788 15.5371ZM171.702 7.30155L174.074 1.57882C170.516 0.643725 166.751 0.00110523 161.661 0.00110523C153.012 -0.0576002 146.525 2.22039 143.875 7.30155C139.692 15.0695 145.55 17.4639 152.594 20.2094C162.916 24.2402 156.987 31.1905 147.086 30.4891C143.11 30.1977 139.622 28.6787 136.135 27.2771L133.904 33.1183C138.089 34.2851 143.04 35.2789 149.107 34.9287C159.358 34.4035 165.706 30.9567 168.287 25.5254C171.216 19.3341 166.681 15.5381 159.915 13.7277C145.828 9.92967 154.267 -1.22541 171.702 7.30155ZM95.7548 0.701376C96.7312 1.8692 97.7076 2.97936 98.2658 4.14718L86.8973 34.2253H93.8021L103.288 9.11094L114.168 34.2253H123.931L123.513 33.2902L135.856 0.700329H128.881L119.816 24.7633L109.355 0.700329C104.821 0.701377 100.287 0.760082 95.7548 0.701376ZM56.7687 0.701376C57.8139 1.8692 58.7915 2.97936 59.2785 4.14718L47.9813 34.2253H77.8997L79.2941 30.4881H59.0707L63.5344 18.7491H76.9245L78.319 15.0695H64.9289L68.9733 4.32329H88.5021L89.8265 0.702432C78.8072 0.701384 67.7879 0.760082 56.7687 0.701376ZM8.85747 0.701376C9.83384 1.8692 10.8803 2.97936 11.3685 4.14718L0 34.2253H9.76375L15.4818 34.1666C32.2191 34.1666 40.1703 27.2163 43.5175 18.1631C48.3305 5.25735 42.4723 0.76009 28.2448 0.76009L8.85747 0.701376Z" fill="#CC2229"/>
</svg>
