<svg width="30" height="30" viewBox="0 0 30 30" fill="none" xmlns="http://www.w3.org/2000/svg">
<circle cx="15" cy="15" r="15" fill="#2E36FF"/>
<g clip-path="url(#clip0_229_84)">
<path d="M22.3333 21.6667H10.3333C9.8029 21.6667 9.29419 21.456 8.91912 21.0809C8.54405 20.7058 8.33333 20.1971 8.33333 19.6667V7.66667C8.33333 7.48986 8.2631 7.32029 8.13807 7.19526C8.01305 7.07024 7.84348 7 7.66667 7C7.48986 7 7.32029 7.07024 7.19526 7.19526C7.07024 7.32029 7 7.48986 7 7.66667V19.6667C7.00106 20.5504 7.35259 21.3976 7.97748 22.0225C8.60237 22.6474 9.4496 22.9989 10.3333 23H22.3333C22.5101 23 22.6797 22.9298 22.8047 22.8047C22.9298 22.6797 23 22.5101 23 22.3333C23 22.1565 22.9298 21.987 22.8047 21.8619C22.6797 21.7369 22.5101 21.6667 22.3333 21.6667Z" fill="white"/>
<path d="M10.9999 20.3334C11.1767 20.3334 11.3463 20.2631 11.4713 20.1381C11.5963 20.0131 11.6666 19.8435 11.6666 19.6667V15C11.6666 14.8232 11.5963 14.6537 11.4713 14.5286C11.3463 14.4036 11.1767 14.3334 10.9999 14.3334C10.8231 14.3334 10.6535 14.4036 10.5285 14.5286C10.4035 14.6537 10.3333 14.8232 10.3333 15V19.6667C10.3333 19.8435 10.4035 20.0131 10.5285 20.1381C10.6535 20.2631 10.8231 20.3334 10.9999 20.3334Z" fill="white"/>
<path d="M13.6667 13.6667V19.6667C13.6667 19.8435 13.737 20.013 13.862 20.1381C13.987 20.2631 14.1566 20.3333 14.3334 20.3333C14.5102 20.3333 14.6798 20.2631 14.8048 20.1381C14.9298 20.013 15.0001 19.8435 15.0001 19.6667V13.6667C15.0001 13.4899 14.9298 13.3203 14.8048 13.1953C14.6798 13.0702 14.5102 13 14.3334 13C14.1566 13 13.987 13.0702 13.862 13.1953C13.737 13.3203 13.6667 13.4899 13.6667 13.6667Z" fill="white"/>
<path d="M17 15.6667V19.6667C17 19.8435 17.0702 20.013 17.1953 20.1381C17.3203 20.2631 17.4899 20.3333 17.6667 20.3333C17.8435 20.3333 18.013 20.2631 18.1381 20.1381C18.2631 20.013 18.3333 19.8435 18.3333 19.6667V15.6667C18.3333 15.4899 18.2631 15.3203 18.1381 15.1953C18.013 15.0702 17.8435 15 17.6667 15C17.4899 15 17.3203 15.0702 17.1953 15.1953C17.0702 15.3203 17 15.4899 17 15.6667Z" fill="white"/>
<path d="M20.3333 13V19.6667C20.3333 19.8435 20.4035 20.0131 20.5285 20.1381C20.6535 20.2631 20.8231 20.3334 20.9999 20.3334C21.1767 20.3334 21.3463 20.2631 21.4713 20.1381C21.5963 20.0131 21.6666 19.8435 21.6666 19.6667V13C21.6666 12.8232 21.5963 12.6537 21.4713 12.5286C21.3463 12.4036 21.1767 12.3334 20.9999 12.3334C20.8231 12.3334 20.6535 12.4036 20.5285 12.5286C20.4035 12.6537 20.3333 12.8232 20.3333 13Z" fill="white"/>
<path d="M11 13C11.1768 12.9999 11.3464 12.9297 11.4714 12.8047L13.862 10.414C13.9891 10.2929 14.1579 10.2254 14.3334 10.2254C14.5089 10.2254 14.6776 10.2929 14.8047 10.414L16.2527 11.862C16.6277 12.2369 17.1364 12.4476 17.6667 12.4476C18.197 12.4476 18.7056 12.2369 19.0807 11.862L22.8047 8.13799C22.9261 8.01225 22.9933 7.84385 22.9918 7.66905C22.9903 7.49425 22.9202 7.32705 22.7966 7.20344C22.673 7.07984 22.5058 7.00972 22.331 7.0082C22.1562 7.00668 21.9878 7.07388 21.862 7.19532L18.138 10.9187C18.013 11.0436 17.8435 11.1138 17.6667 11.1138C17.4899 11.1138 17.3204 11.0436 17.1954 10.9187L15.7474 9.47132C15.3723 9.09638 14.8637 8.88575 14.3334 8.88575C13.803 8.88575 13.2944 9.09638 12.9194 9.47132L10.5287 11.862C10.4355 11.9552 10.372 12.074 10.3463 12.2033C10.3206 12.3326 10.3338 12.4666 10.3842 12.5884C10.4347 12.7102 10.5201 12.8143 10.6297 12.8876C10.7393 12.9608 10.8682 13 11 13Z" fill="white"/>
</g>
<defs>
<clipPath id="clip0_229_84">
<rect width="16" height="16" fill="white" transform="translate(7 7)"/>
</clipPath>
</defs>
</svg>
