<svg width="20" height="20" viewBox="0 0 20 20" fill="none" xmlns="http://www.w3.org/2000/svg">
  <path
    d="M18.75 8.91724H1.25C0.559648 8.91724 0 9.40203 0 10C0 10.5981 0.559648 11.0828 1.25 11.0828H18.75C19.4404 11.0828 20 10.5981 20 10C20 9.40203 19.4404 8.91724 18.75 8.91724Z"
    fill="#2E36FF" />
  <path
    d="M1.25 2.16561H18.75C19.4404 2.16561 20 1.68081 20 1.0828C20 0.484791 19.4404 0 18.75 0H1.25C0.559648 0 0 0.484791 0 1.0828C0 1.68081 0.559648 2.16561 1.25 2.16561Z"
    fill="#2E36FF" />
  <path
    d="M18.75 17.8344H1.25C0.559648 17.8344 0 18.3191 0 18.9172C0 19.5152 0.559648 20 1.25 20H18.75C19.4404 20 20 19.5152 20 18.9172C20 18.3191 19.4404 17.8344 18.75 17.8344Z"
    fill="#2E36FF" />
</svg>