<svg width="30" height="30" viewBox="0 0 30 30" fill="none" xmlns="http://www.w3.org/2000/svg">
<circle cx="15" cy="15" r="14" stroke="#2E36FF" stroke-width="2"/>
<g clip-path="url(#clip0_273_129)">
<path d="M22 14H16V8C16 7.44772 15.5523 7 15 7C14.4477 7 14 7.44772 14 8V14H8C7.44772 14 7 14.4477 7 15C7 15.5523 7.44772 16 8 16H14V22C14 22.5523 14.4477 23 15 23C15.5523 23 16 22.5523 16 22V16H22C22.5523 16 23 15.5523 23 15C23 14.4477 22.5523 14 22 14Z" fill="#2E36FF"/>
</g>
<defs>
<clipPath id="clip0_273_129">
<rect width="16" height="16" fill="white" transform="translate(7 7)"/>
</clipPath>
</defs>
</svg>
