<svg width="30" height="30" viewBox="0 0 30 30" fill="none" xmlns="http://www.w3.org/2000/svg">
<circle cx="15" cy="15" r="15" fill="#2E36FF"/>
<g clip-path="url(#clip0_229_259)">
<path d="M9.66646 11.0001C9.40362 11.0008 9.14326 10.9494 8.90044 10.8488C8.65762 10.7482 8.43715 10.6005 8.25179 10.4141L7.22246 9.49812C7.09038 9.38036 7.01049 9.21496 7.00036 9.0383C6.99024 8.86164 7.0507 8.6882 7.16846 8.55612C7.28621 8.42404 7.45161 8.34415 7.62827 8.33402C7.80493 8.3239 7.97838 8.38436 8.11046 8.50212L9.16712 9.44478C9.22761 9.51272 9.30137 9.56755 9.38384 9.60591C9.46632 9.64427 9.55577 9.66535 9.64669 9.66785C9.73762 9.67035 9.8281 9.65421 9.91255 9.62044C9.99701 9.58666 10.0737 9.53596 10.1378 9.47145L12.5405 7.18412C12.6697 7.0691 12.8385 7.0088 13.0113 7.01595C13.1842 7.02311 13.3474 7.09716 13.4667 7.22246C13.5859 7.34777 13.6518 7.51451 13.6504 7.68749C13.649 7.86046 13.5804 8.02611 13.4591 8.14945L11.0665 10.4255C10.8823 10.6085 10.6639 10.7535 10.4237 10.8521C10.1834 10.9507 9.92613 11.001 9.66646 11.0001ZM22.9998 9.66678C22.9998 9.48997 22.9296 9.3204 22.8045 9.19538C22.6795 9.07036 22.5099 9.00012 22.3331 9.00012H15.6665C15.4896 9.00012 15.3201 9.07036 15.1951 9.19538C15.07 9.3204 14.9998 9.48997 14.9998 9.66678C14.9998 9.8436 15.07 10.0132 15.1951 10.1382C15.3201 10.2632 15.4896 10.3335 15.6665 10.3335H22.3331C22.5099 10.3335 22.6795 10.2632 22.8045 10.1382C22.9296 10.0132 22.9998 9.8436 22.9998 9.66678ZM11.0665 15.7588L13.4591 13.4828C13.5259 13.4233 13.58 13.3511 13.6183 13.2702C13.6566 13.1894 13.6782 13.1018 13.6819 13.0124C13.6856 12.9231 13.6713 12.8339 13.6398 12.7502C13.6084 12.6665 13.5604 12.59 13.4988 12.5253C13.4371 12.4605 13.3631 12.4088 13.2811 12.3732C13.199 12.3376 13.1107 12.3189 13.0213 12.3182C12.9319 12.3175 12.8432 12.3347 12.7606 12.369C12.678 12.4032 12.6031 12.4537 12.5405 12.5175L10.1405 14.8048C10.0135 14.9261 9.84472 14.9939 9.66912 14.9939C9.49353 14.9939 9.3247 14.9261 9.19779 14.8048L8.13779 13.7481C8.01206 13.6267 7.84365 13.5595 7.66886 13.561C7.49406 13.5625 7.32685 13.6326 7.20324 13.7562C7.07964 13.8798 7.00953 14.0471 7.00801 14.2218C7.00649 14.3966 7.07368 14.565 7.19512 14.6908L8.25179 15.7475C8.62491 16.1207 9.1304 16.3313 9.65812 16.3334C10.1858 16.3355 10.693 16.129 11.0691 15.7588H11.0665ZM22.9998 15.0001C22.9998 14.8233 22.9296 14.6537 22.8045 14.5287C22.6795 14.4037 22.5099 14.3335 22.3331 14.3335H15.6665C15.4896 14.3335 15.3201 14.4037 15.1951 14.5287C15.07 14.6537 14.9998 14.8233 14.9998 15.0001C14.9998 15.1769 15.07 15.3465 15.1951 15.4715C15.3201 15.5965 15.4896 15.6668 15.6665 15.6668H22.3331C22.5099 15.6668 22.6795 15.5965 22.8045 15.4715C22.9296 15.3465 22.9998 15.1769 22.9998 15.0001ZM11.0665 21.0921L13.4565 18.8161C13.5232 18.7567 13.5774 18.6844 13.6157 18.6036C13.6539 18.5228 13.6756 18.4351 13.6793 18.3458C13.683 18.2564 13.6686 18.1673 13.6372 18.0836C13.6057 17.9999 13.5577 17.9234 13.4961 17.8586C13.4345 17.7938 13.3604 17.7421 13.2784 17.7065C13.1964 17.671 13.108 17.6523 13.0186 17.6515C12.9292 17.6508 12.8405 17.6681 12.7579 17.7023C12.6753 17.7365 12.6005 17.787 12.5378 17.8508L10.1378 20.1381C10.0737 20.2026 9.99701 20.2533 9.91255 20.2871C9.8281 20.3209 9.73762 20.337 9.64669 20.3345C9.55577 20.332 9.46632 20.3109 9.38384 20.2726C9.30137 20.2342 9.22761 20.1794 9.16712 20.1115L8.11046 19.1688C7.97838 19.051 7.80493 18.9906 7.62827 19.0007C7.45161 19.0108 7.28621 19.0907 7.16846 19.2228C7.0507 19.3549 6.99024 19.5283 7.00036 19.705C7.01049 19.8816 7.09038 20.047 7.22246 20.1648L8.25179 21.0808C8.62491 21.454 9.1304 21.6646 9.65812 21.6667C10.1858 21.6688 10.693 21.4623 11.0691 21.0921H11.0665ZM22.9998 20.3335C22.9998 20.1566 22.9296 19.9871 22.8045 19.862C22.6795 19.737 22.5099 19.6668 22.3331 19.6668H15.6665C15.4896 19.6668 15.3201 19.737 15.1951 19.862C15.07 19.9871 14.9998 20.1566 14.9998 20.3335C14.9998 20.5103 15.07 20.6798 15.1951 20.8049C15.3201 20.9299 15.4896 21.0001 15.6665 21.0001H22.3331C22.5099 21.0001 22.6795 20.9299 22.8045 20.8049C22.9296 20.6798 22.9998 20.5103 22.9998 20.3335Z" fill="white"/>
</g>
<defs>
<clipPath id="clip0_229_259">
<rect width="16" height="16" fill="white" transform="translate(7 7)"/>
</clipPath>
</defs>
</svg>
