<svg width="30" height="30" viewBox="0 0 30 30" fill="none" xmlns="http://www.w3.org/2000/svg">
<circle cx="15" cy="15" r="15" fill="#2E36FF"/>
<g clip-path="url(#clip0_229_240)">
<path d="M15 7C13.4178 7 11.871 7.46919 10.5554 8.34824C9.23985 9.22729 8.21447 10.4767 7.60897 11.9385C7.00347 13.4003 6.84504 15.0089 7.15372 16.5607C7.4624 18.1126 8.22433 19.538 9.34315 20.6569C10.462 21.7757 11.8874 22.5376 13.4393 22.8463C14.9911 23.155 16.5997 22.9965 18.0615 22.391C19.5233 21.7855 20.7727 20.7602 21.6518 19.4446C22.5308 18.129 23 16.5823 23 15C22.9977 12.879 22.1541 10.8455 20.6543 9.34568C19.1545 7.84589 17.121 7.00229 15 7ZM15 21.6667C13.6815 21.6667 12.3925 21.2757 11.2962 20.5431C10.1999 19.8106 9.34539 18.7694 8.84081 17.5512C8.33622 16.333 8.2042 14.9926 8.46144 13.6994C8.71867 12.4062 9.35361 11.2183 10.286 10.286C11.2183 9.35361 12.4062 8.71867 13.6994 8.46143C14.9926 8.2042 16.3331 8.33622 17.5512 8.8408C18.7694 9.34539 19.8106 10.1999 20.5431 11.2962C21.2757 12.3925 21.6667 13.6815 21.6667 15C21.6647 16.7675 20.9617 18.4621 19.7119 19.7119C18.4621 20.9617 16.7675 21.6647 15 21.6667Z" fill="white"/>
<path d="M14.9999 11C14.8231 11 14.6535 11.0702 14.5285 11.1953C14.4035 11.3203 14.3332 11.4899 14.3332 11.6667V14.55L12.0859 15.958C11.9356 16.0519 11.8288 16.2016 11.7889 16.3743C11.749 16.5469 11.7793 16.7284 11.8732 16.8787C11.9671 17.029 12.1168 17.1358 12.2895 17.1757C12.4622 17.2156 12.6436 17.1852 12.7939 17.0913L15.3539 15.4913C15.4506 15.4307 15.5302 15.3463 15.5849 15.2462C15.6396 15.146 15.6678 15.0335 15.6665 14.9193V11.6667C15.6665 11.4899 15.5963 11.3203 15.4713 11.1953C15.3463 11.0702 15.1767 11 14.9999 11Z" fill="white"/>
</g>
<defs>
<clipPath id="clip0_229_240">
<rect width="16" height="16" fill="white" transform="translate(7 7)"/>
</clipPath>
</defs>
</svg>
